<svg width="59" height="58" viewBox="0 0 59 58" fill="none" xmlns="http://www.w3.org/2000/svg">
<circle cx="29.5" cy="29" r="29" fill="#FF8615"/>
<path d="M23.1667 44.8333H35.8333C42.1983 44.8333 43.3383 42.2842 43.6708 39.1808L44.8583 26.5142C45.2858 22.6508 44.1775 19.5 37.4167 19.5H21.5833C14.8225 19.5 13.7142 22.6508 14.1417 26.5142L15.3292 39.1808C15.6617 42.2842 16.8017 44.8333 23.1667 44.8333Z" stroke="white" stroke-width="1.5" stroke-miterlimit="10" stroke-linecap="round" stroke-linejoin="round"/>
<path d="M23.1667 19.5001V18.2334C23.1667 15.4309 23.1667 13.1667 28.2333 13.1667H30.7667C35.8333 13.1667 35.8333 15.4309 35.8333 18.2334V19.5001" stroke="white" stroke-width="1.5" stroke-miterlimit="10" stroke-linecap="round" stroke-linejoin="round"/>
<path d="M32.6667 30.5833V32.1667C32.6667 32.1825 32.6667 32.1825 32.6667 32.1983C32.6667 33.9242 32.6508 35.3333 29.5 35.3333C26.365 35.3333 26.3333 33.94 26.3333 32.2142V30.5833C26.3333 29 26.3333 29 27.9167 29H31.0833C32.6667 29 32.6667 29 32.6667 30.5833Z" stroke="white" stroke-width="1.5" stroke-miterlimit="10" stroke-linecap="round" stroke-linejoin="round"/>
<path d="M44.7792 27.4167C41.1217 30.0767 36.9417 31.6601 32.6667 32.1984" stroke="white" stroke-width="1.5" stroke-miterlimit="10" stroke-linecap="round" stroke-linejoin="round"/>
<path d="M14.6483 27.8442C18.2108 30.2826 22.2325 31.7551 26.3333 32.2142" stroke="white" stroke-width="1.5" stroke-miterlimit="10" stroke-linecap="round" stroke-linejoin="round"/>
</svg>
