<svg width="59" height="58" viewBox="0 0 59 58" fill="none" xmlns="http://www.w3.org/2000/svg">
<circle cx="29.5" cy="29" r="29" fill="#FF40FF"/>
<path d="M24.2305 32.689C24.2305 34.7315 25.798 36.3781 27.7455 36.3781H31.7196C33.4138 36.3781 34.7913 34.9373 34.7913 33.164C34.7913 31.2323 33.9521 30.5515 32.7013 30.1081L26.3205 27.8915C25.0696 27.4481 24.2305 26.7673 24.2305 24.8356C24.2305 23.0623 25.608 21.6215 27.3021 21.6215H31.2763C33.2238 21.6215 34.7913 23.2681 34.7913 25.3106" stroke="white" stroke-width="1.5" stroke-linecap="round" stroke-linejoin="round"/>
<path d="M29.5 19.5V38.5" stroke="white" stroke-width="1.5" stroke-linecap="round" stroke-linejoin="round"/>
<path d="M29.5 44.8333C38.2445 44.8333 45.3333 37.7445 45.3333 29C45.3333 20.2555 38.2445 13.1666 29.5 13.1666C20.7555 13.1666 13.6667 20.2555 13.6667 29C13.6667 37.7445 20.7555 44.8333 29.5 44.8333Z" stroke="white" stroke-width="1.5" stroke-linecap="round" stroke-linejoin="round"/>
</svg>
