<svg width="24" height="25" viewBox="0 0 24 25" fill="none" xmlns="http://www.w3.org/2000/svg">
<path d="M14.53 9.86238L9.47004 14.9224C8.82004 14.2724 8.42004 13.3824 8.42004 12.3924C8.42004 10.4124 10.02 8.81238 12 8.81238C12.99 8.81238 13.88 9.21238 14.53 9.86238Z" stroke="#CCCCFF" stroke-width="1.5" stroke-linecap="round" stroke-linejoin="round"/>
<path d="M17.82 6.16238C16.07 4.84238 14.07 4.12238 12 4.12238C8.46997 4.12238 5.17997 6.20238 2.88997 9.80238C1.98997 11.2124 1.98997 13.5824 2.88997 14.9924C3.67997 16.2324 4.59997 17.3024 5.59997 18.1624" stroke="#CCCCFF" stroke-width="1.5" stroke-linecap="round" stroke-linejoin="round"/>
<path d="M8.42004 19.9224C9.56004 20.4024 10.77 20.6624 12 20.6624C15.53 20.6624 18.82 18.5824 21.11 14.9824C22.01 13.5724 22.01 11.2024 21.11 9.79238C20.78 9.27238 20.42 8.78238 20.05 8.32238" stroke="#CCCCFF" stroke-width="1.5" stroke-linecap="round" stroke-linejoin="round"/>
<path d="M15.5099 13.0924C15.2499 14.5024 14.0999 15.6524 12.6899 15.9124" stroke="#CCCCFF" stroke-width="1.5" stroke-linecap="round" stroke-linejoin="round"/>
<path d="M9.47 14.9224L2 22.3924" stroke="#CCCCFF" stroke-width="1.5" stroke-linecap="round" stroke-linejoin="round"/>
<path d="M22 2.39238L14.53 9.86238" stroke="#CCCCFF" stroke-width="1.5" stroke-linecap="round" stroke-linejoin="round"/>
</svg>
