<svg width="24" height="25" viewBox="0 0 24 25" fill="none" xmlns="http://www.w3.org/2000/svg">
<path d="M15.5799 12.5C15.5799 14.48 13.9799 16.08 11.9999 16.08C10.0199 16.08 8.41992 14.48 8.41992 12.5C8.41992 10.52 10.0199 8.92 11.9999 8.92C13.9799 8.92 15.5799 10.52 15.5799 12.5Z" stroke="#CCCCFF" stroke-width="1.5" stroke-linecap="round" stroke-linejoin="round"/>
<path d="M12.0001 20.77C15.5301 20.77 18.8201 18.69 21.1101 15.09C22.0101 13.68 22.0101 11.31 21.1101 9.9C18.8201 6.3 15.5301 4.22 12.0001 4.22C8.47009 4.22 5.18009 6.3 2.89009 9.9C1.99009 11.31 1.99009 13.68 2.89009 15.09C5.18009 18.69 8.47009 20.77 12.0001 20.77Z" stroke="#CCCCFF" stroke-width="1.5" stroke-linecap="round" stroke-linejoin="round"/>
</svg>
