<svg width="36" height="36" viewBox="0 0 36 36" fill="none" xmlns="http://www.w3.org/2000/svg">
<rect x="0.5" y="0.5" width="35" height="35" rx="9.5" fill="white"/>
<rect x="0.5" y="0.5" width="35" height="35" rx="9.5" stroke="#00B44B"/>
<path d="M21.58 17.9999C21.58 19.9799 19.98 21.5799 18 21.5799C16.02 21.5799 14.42 19.9799 14.42 17.9999C14.42 16.0199 16.02 14.4199 18 14.4199C19.98 14.4199 21.58 16.0199 21.58 17.9999Z" stroke="#00B44B" stroke-width="1.5" stroke-linecap="round" stroke-linejoin="round"/>
<path d="M18 26.2702C21.53 26.2702 24.82 24.1902 27.11 20.5902C28.01 19.1802 28.01 16.8102 27.11 15.4002C24.82 11.8002 21.53 9.72021 18 9.72021C14.47 9.72021 11.18 11.8002 8.88997 15.4002C7.98997 16.8102 7.98997 19.1802 8.88997 20.5902C11.18 24.1902 14.47 26.2702 18 26.2702Z" stroke="#00B44B" stroke-width="1.5" stroke-linecap="round" stroke-linejoin="round"/>
</svg>
