<svg width="24" height="24" viewBox="0 0 24 24" fill="none" xmlns="http://www.w3.org/2000/svg">
<path d="M5.60182 2.09998H18.37C19.4341 2.09998 20.3046 2.99998 20.3046 4.09998V6.29998C20.3046 7.09998 19.821 8.09998 19.3373 8.59998L15.178 12.4C14.5976 12.9 14.2107 13.9 14.2107 14.7V19C14.2107 19.6 13.8238 20.4 13.3401 20.7L11.9859 21.6C10.7285 22.4 8.98733 21.5 8.98733 19.9V14.6C8.98733 13.9 8.60041 13 8.2135 12.5L4.5378 8.49998C4.05415 7.99998 3.66724 7.09998 3.66724 6.49998V4.19998C3.66724 2.99998 4.5378 2.09998 5.60182 2.09998Z" stroke="white" stroke-width="1.5" stroke-miterlimit="10" stroke-linecap="round" stroke-linejoin="round"/>
<path d="M10.9509 2.09998L6.18219 9.99998" stroke="white" stroke-width="1.5" stroke-miterlimit="10" stroke-linecap="round" stroke-linejoin="round"/>
</svg>
