<svg width="59" height="58" viewBox="0 0 59 58" fill="none" xmlns="http://www.w3.org/2000/svg">
<circle cx="29.5" cy="29" r="29" fill="#FF8615"/>
<g clip-path="url(#clip0_90_9780)">
<path d="M34.25 21.875V39.787C34.2501 39.9823 34.2984 40.1745 34.3906 40.3467C34.4828 40.5189 34.616 40.6657 34.7784 40.7741L36.4112 41.8621C36.5696 41.9677 36.7511 42.0337 36.9403 42.0545C37.1295 42.0753 37.3209 42.0503 37.4985 41.9816C37.676 41.9129 37.8344 41.8025 37.9604 41.6598C38.0863 41.5171 38.1761 41.3462 38.2222 41.1615L40.1875 33.75" stroke="white" stroke-width="1.5" stroke-linecap="round" stroke-linejoin="round"/>
<path d="M16.4375 39.6874C16.4376 39.9136 16.5022 40.135 16.6238 40.3257C16.7454 40.5164 16.9189 40.6684 17.1239 40.7638C17.329 40.8592 17.557 40.8941 17.7812 40.8644C18.0054 40.8346 18.2164 40.7415 18.3895 40.5959C26.1676 34.0706 34.25 33.7499 34.25 33.7499H40.1875C41.7622 33.7499 43.2724 33.1244 44.3859 32.0109C45.4994 30.8974 46.125 29.3872 46.125 27.8124C46.125 26.2377 45.4994 24.7275 44.3859 23.614C43.2724 22.5005 41.7622 21.8749 40.1875 21.8749H34.25C34.25 21.8749 26.1676 21.5543 18.3895 15.0305C18.2165 14.885 18.0056 14.7919 17.7815 14.7621C17.5575 14.7323 17.3296 14.767 17.1246 14.8623C16.9196 14.9575 16.7461 15.1093 16.6244 15.2997C16.5027 15.4902 16.4378 15.7114 16.4375 15.9374V39.6874Z" stroke="white" stroke-width="1.5" stroke-linecap="round" stroke-linejoin="round"/>
</g>
<defs>
<clipPath id="clip0_90_9780">
<rect width="38" height="38" fill="white" transform="translate(10.5 10)"/>
</clipPath>
</defs>
</svg>
