<svg width="63" height="63" viewBox="0 0 63 63" fill="none" xmlns="http://www.w3.org/2000/svg">
<path opacity="0.7" d="M31.5 63C48.897 63 63 48.897 63 31.5C63 14.103 48.897 0 31.5 0C14.103 0 0 14.103 0 31.5C0 48.897 14.103 63 31.5 63Z" fill="#CCCCFF"/>
<path d="M34.9824 16.6235C34.449 16.4687 33.8984 16.3482 33.3306 16.2794C31.6789 16.0729 30.0959 16.1934 28.6162 16.6235C29.1152 15.3503 30.354 14.4556 31.7993 14.4556C33.2446 14.4556 34.4834 15.3503 34.9824 16.6235Z" stroke="#00B44B" stroke-width="2" stroke-miterlimit="10" stroke-linecap="round" stroke-linejoin="round"/>
<path d="M36.961 44.7725C36.961 47.6114 34.6382 49.9342 31.7992 49.9342C30.3883 49.9342 29.0807 49.3492 28.1516 48.4201C27.2224 47.491 26.6375 46.1833 26.6375 44.7725" stroke="#00B44B" stroke-width="2" stroke-miterlimit="10"/>
<path d="M31.7991 16.1245C26.104 16.1245 21.4756 20.7529 21.4756 26.448V31.4205C21.4756 32.4701 21.0282 34.0702 20.4949 34.965L18.5162 38.2513C17.2946 40.2816 18.1376 42.5355 20.3744 43.2926C27.7901 45.7702 35.7909 45.7702 43.2066 43.2926C45.2885 42.6044 46.2004 40.1439 45.0649 38.2513L43.0862 34.965C42.57 34.0702 42.1226 32.4701 42.1226 31.4205V26.448C42.1226 20.7701 37.4771 16.1245 31.7991 16.1245Z" stroke="#00B44B" stroke-width="2" stroke-miterlimit="10" stroke-linecap="round"/>
</svg>
