<svg width="25" height="24" viewBox="0 0 25 24" fill="none" xmlns="http://www.w3.org/2000/svg">
<path d="M21.125 7V17C21.125 20 19.625 22 16.125 22H8.125C4.625 22 3.125 20 3.125 17V7C3.125 4 4.625 2 8.125 2H16.125C19.625 2 21.125 4 21.125 7Z" stroke="black" stroke-miterlimit="10" stroke-linecap="round" stroke-linejoin="round"/>
<path d="M15.625 2V9.85999C15.625 10.3 15.105 10.52 14.785 10.23L12.465 8.09003C12.275 7.91003 11.975 7.91003 11.785 8.09003L9.46503 10.23C9.14503 10.52 8.625 10.3 8.625 9.85999V2H15.625Z" stroke="#292D32" stroke-miterlimit="10" stroke-linecap="round" stroke-linejoin="round"/>
<path d="M13.375 14H17.625" stroke="#292D32" stroke-miterlimit="10" stroke-linecap="round" stroke-linejoin="round"/>
<path d="M9.125 18H17.625" stroke="#292D32" stroke-miterlimit="10" stroke-linecap="round" stroke-linejoin="round"/>
</svg>
