<svg width="113" height="113" viewBox="0 0 113 113" fill="none" xmlns="http://www.w3.org/2000/svg">
<path d="M51.8858 91.8125H35.3124C32.3933 91.8125 29.8037 91.7183 27.4966 91.3888C15.1137 90.0233 11.7708 84.185 11.7708 68.2708V44.7292C11.7708 28.815 15.1137 22.9767 27.4966 21.6113C29.8037 21.2817 32.3933 21.1875 35.3124 21.1875H51.6033" stroke="#FF8615" stroke-width="4" stroke-linecap="round" stroke-linejoin="round"/>
<path d="M70.7192 21.1875H77.6876C80.6067 21.1875 83.1963 21.2817 85.5034 21.6113C97.8863 22.9767 101.229 28.815 101.229 44.7292V68.2708C101.229 84.185 97.8863 90.0233 85.5034 91.3888C83.1963 91.7183 80.6067 91.8125 77.6876 91.8125H70.7192" stroke="#FF8615" stroke-width="4" stroke-linecap="round" stroke-linejoin="round"/>
<path d="M70.625 9.41666V103.583" stroke="#FF8615" stroke-width="4" stroke-linecap="round" stroke-linejoin="round"/>
<path d="M52.2365 56.5H52.2788" stroke="#FF8615" stroke-width="5" stroke-linecap="round" stroke-linejoin="round"/>
<path d="M33.4033 56.5H33.4455" stroke="#FF8615" stroke-width="5" stroke-linecap="round" stroke-linejoin="round"/>
</svg>
