<svg width="25" height="24" viewBox="0 0 25 24" fill="none" xmlns="http://www.w3.org/2000/svg">
<path d="M12.495 12.78C12.425 12.77 12.335 12.77 12.255 12.78C10.495 12.72 9.095 11.28 9.095 9.50998C9.095 7.69998 10.555 6.22998 12.375 6.22998C14.185 6.22998 15.655 7.69998 15.655 9.50998C15.645 11.28 14.255 12.72 12.495 12.78Z" stroke="#292D32" stroke-linecap="round" stroke-linejoin="round"/>
<path d="M19.115 19.3801C17.335 21.0101 14.975 22.0001 12.375 22.0001C9.77499 22.0001 7.41499 21.0101 5.63499 19.3801C5.73499 18.4401 6.33499 17.5201 7.40499 16.8001C10.145 14.9801 14.625 14.9801 17.345 16.8001C18.415 17.5201 19.015 18.4401 19.115 19.3801Z" stroke="#292D32" stroke-linecap="round" stroke-linejoin="round"/>
<path d="M12.375 22C17.8978 22 22.375 17.5228 22.375 12C22.375 6.47715 17.8978 2 12.375 2C6.85215 2 2.375 6.47715 2.375 12C2.375 17.5228 6.85215 22 12.375 22Z" stroke="#292D32" stroke-linecap="round" stroke-linejoin="round"/>
</svg>
