<svg width="18" height="18" viewBox="0 0 18 18" fill="none" xmlns="http://www.w3.org/2000/svg">
<path d="M6.23932 14.8206H11.2178" stroke="#FF8615" stroke-width="1.5" stroke-linecap="round" stroke-linejoin="round"/>
<path d="M7.40094 16.314H10.0561" stroke="#FF8615" stroke-width="1.5" stroke-linecap="round" stroke-linejoin="round"/>
<path d="M8.72852 12.8292V11.3357" stroke="#FF8615" stroke-width="1.5" stroke-linecap="round" stroke-linejoin="round"/>
<path d="M5.66058 10.7755C5.06874 10.3132 4.58937 9.72277 4.25847 9.04858C3.92757 8.37439 3.75376 7.63398 3.75008 6.88297C3.73514 4.18462 5.91075 1.93869 8.60848 1.87646C9.65397 1.85114 10.6809 2.15569 11.5435 2.74691C12.4062 3.33814 13.0607 4.186 13.4143 5.17021C13.7679 6.15442 13.8026 7.22498 13.5135 8.23002C13.2243 9.23505 12.626 10.1235 11.8034 10.7693C11.622 10.91 11.475 11.0901 11.3735 11.2961C11.2721 11.502 11.2188 11.7284 11.2178 11.9579V12.3313C11.2178 12.4634 11.1654 12.59 11.072 12.6834C10.9787 12.7767 10.852 12.8292 10.72 12.8292H6.73718C6.60514 12.8292 6.47851 12.7767 6.38515 12.6834C6.29178 12.59 6.23933 12.4634 6.23933 12.3313V11.9579C6.23909 11.7298 6.18684 11.5048 6.08656 11.2999C5.98627 11.095 5.84058 10.9157 5.66058 10.7755Z" stroke="#FF8615" stroke-width="1.5" stroke-linecap="round" stroke-linejoin="round"/>
<path d="M8.72864 7.85019V7.68759C8.72864 7.16097 9.04357 6.88216 9.35848 6.65758C9.66589 6.44074 9.97326 6.16195 9.97326 5.65082C9.97326 4.93834 9.41844 4.36523 8.72864 4.36523C8.03883 4.36523 7.48401 4.93834 7.48401 5.65082" stroke="#FF8615" stroke-width="1.5" stroke-linecap="round" stroke-linejoin="round"/>
<path d="M8.72642 9.59316H8.7309" stroke="#FF8615" stroke-width="1.5" stroke-linecap="round" stroke-linejoin="round"/>
</svg>
