<svg width="18" height="18" viewBox="0 0 18 18" fill="none" xmlns="http://www.w3.org/2000/svg">
<path d="M10.2975 2.63248L11.6175 5.27248C11.7975 5.63998 12.2775 5.99248 12.6825 6.05998L15.075 6.45748C16.605 6.71248 16.965 7.82248 15.8625 8.91748L14.0025 10.7775C13.6875 11.0925 13.515 11.7 13.6125 12.135L14.145 14.4375C14.565 16.26 13.5975 16.965 11.985 16.0125L9.7425 14.685C9.3375 14.445 8.67 14.445 8.2575 14.685L6.015 16.0125C4.41 16.965 3.435 16.2525 3.855 14.4375L4.3875 12.135C4.485 11.7 4.3125 11.0925 3.9975 10.7775L2.1375 8.91748C1.0425 7.82248 1.395 6.71248 2.925 6.45748L5.3175 6.05998C5.715 5.99248 6.195 5.63998 6.375 5.27248L7.695 2.63248C8.415 1.19998 9.585 1.19998 10.2975 2.63248Z" stroke="#FF8615" stroke-width="1.5" stroke-linecap="round" stroke-linejoin="round"/>
</svg>
