<svg width="55" height="10" viewBox="0 0 55 10" fill="none" xmlns="http://www.w3.org/2000/svg">
<rect width="10" height="10" transform="translate(0.787598)" fill="white"/>
<path d="M6.50839 1.4626L7.24173 2.92926C7.34173 3.13343 7.60839 3.32926 7.83339 3.36676L9.16256 3.5876C10.0126 3.72926 10.2126 4.34593 9.60006 4.95427L8.56673 5.9876C8.39173 6.1626 8.29589 6.5001 8.35006 6.74177L8.64589 8.02093C8.87923 9.03343 8.34173 9.4251 7.44589 8.89593L6.20006 8.15843C5.97506 8.0251 5.60423 8.0251 5.37506 8.15843L4.12923 8.89593C3.23756 9.4251 2.69589 9.02927 2.92923 8.02093L3.22506 6.74177C3.27923 6.5001 3.18339 6.1626 3.00839 5.9876L1.97506 4.95427C1.36673 4.34593 1.56256 3.72926 2.41256 3.5876L3.74173 3.36676C3.96256 3.32926 4.22923 3.13343 4.32923 2.92926L5.06256 1.4626C5.46256 0.666764 6.11256 0.666764 6.50839 1.4626Z" fill="#FFC200" stroke="#FFC200" stroke-linecap="round" stroke-linejoin="round"/>
<rect width="10" height="10" transform="translate(11.7876)" fill="white"/>
<path d="M17.5084 1.4626L18.2417 2.92926C18.3417 3.13343 18.6084 3.32926 18.8334 3.36676L20.1626 3.5876C21.0126 3.72926 21.2126 4.34593 20.6001 4.95427L19.5667 5.9876C19.3917 6.1626 19.2959 6.5001 19.3501 6.74177L19.6459 8.02093C19.8792 9.03343 19.3417 9.4251 18.4459 8.89593L17.2001 8.15843C16.9751 8.0251 16.6042 8.0251 16.3751 8.15843L15.1292 8.89593C14.2376 9.4251 13.6959 9.02927 13.9292 8.02093L14.2251 6.74177C14.2792 6.5001 14.1834 6.1626 14.0084 5.9876L12.9751 4.95427C12.3667 4.34593 12.5626 3.72926 13.4126 3.5876L14.7417 3.36676C14.9626 3.32926 15.2292 3.13343 15.3292 2.92926L16.0626 1.4626C16.4626 0.666764 17.1126 0.666764 17.5084 1.4626Z" fill="#FFC200" stroke="#FFC200" stroke-linecap="round" stroke-linejoin="round"/>
<rect width="10" height="10" transform="translate(22.7876)" fill="white"/>
<path d="M28.5084 1.4626L29.2417 2.92926C29.3417 3.13343 29.6084 3.32926 29.8334 3.36676L31.1626 3.5876C32.0126 3.72926 32.2126 4.34593 31.6001 4.95427L30.5667 5.9876C30.3917 6.1626 30.2959 6.5001 30.3501 6.74177L30.6459 8.02093C30.8792 9.03343 30.3417 9.4251 29.4459 8.89593L28.2001 8.15843C27.9751 8.0251 27.6042 8.0251 27.3751 8.15843L26.1292 8.89593C25.2376 9.4251 24.6959 9.02927 24.9292 8.02093L25.2251 6.74177C25.2792 6.5001 25.1834 6.1626 25.0084 5.9876L23.9751 4.95427C23.3667 4.34593 23.5626 3.72926 24.4126 3.5876L25.7417 3.36676C25.9626 3.32926 26.2292 3.13343 26.3292 2.92926L27.0626 1.4626C27.4626 0.666764 28.1126 0.666764 28.5084 1.4626Z" fill="#FFC200" stroke="#FFC200" stroke-linecap="round" stroke-linejoin="round"/>
<rect width="10" height="10" transform="translate(33.7876)" fill="white"/>
<path d="M39.5084 1.4626L40.2417 2.92926C40.3417 3.13343 40.6084 3.32926 40.8334 3.36676L42.1626 3.5876C43.0126 3.72926 43.2126 4.34593 42.6001 4.95427L41.5667 5.9876C41.3917 6.1626 41.2959 6.5001 41.3501 6.74177L41.6459 8.02093C41.8792 9.03343 41.3417 9.4251 40.4459 8.89593L39.2001 8.15843C38.9751 8.0251 38.6042 8.0251 38.3751 8.15843L37.1292 8.89593C36.2376 9.4251 35.6959 9.02927 35.9292 8.02093L36.2251 6.74177C36.2792 6.5001 36.1834 6.1626 36.0084 5.9876L34.9751 4.95427C34.3667 4.34593 34.5626 3.72926 35.4126 3.5876L36.7417 3.36676C36.9626 3.32926 37.2292 3.13343 37.3292 2.92926L38.0626 1.4626C38.4626 0.666764 39.1126 0.666764 39.5084 1.4626Z" fill="#FFC200" stroke="#FFC200" stroke-linecap="round" stroke-linejoin="round"/>
<rect width="10" height="10" transform="translate(44.7876)" fill="white"/>
<path d="M50.5084 1.4626L51.2417 2.92926C51.3417 3.13343 51.6084 3.32926 51.8334 3.36676L53.1626 3.5876C54.0126 3.72926 54.2126 4.34593 53.6001 4.95427L52.5667 5.9876C52.3917 6.1626 52.2959 6.5001 52.3501 6.74177L52.6459 8.02093C52.8792 9.03343 52.3417 9.4251 51.4459 8.89593L50.2001 8.15843C49.9751 8.0251 49.6042 8.0251 49.3751 8.15843L48.1292 8.89593C47.2376 9.4251 46.6959 9.02927 46.9292 8.02093L47.2251 6.74177C47.2792 6.5001 47.1834 6.1626 47.0084 5.9876L45.9751 4.95427C45.3667 4.34593 45.5626 3.72926 46.4126 3.5876L47.7417 3.36676C47.9626 3.32926 48.2292 3.13343 48.3292 2.92926L49.0626 1.4626C49.4626 0.666764 50.1126 0.666764 50.5084 1.4626Z" stroke="#FFC200" stroke-linecap="round" stroke-linejoin="round"/>
</svg>
