<svg width="113" height="114" viewBox="0 0 113 114" fill="none" xmlns="http://www.w3.org/2000/svg">
<path d="M103.583 49.9375V73.4792C103.583 89.9583 94.1668 97.0208 80.0418 97.0208H32.9584C18.8334 97.0208 9.41675 89.9583 9.41675 73.4792V40.5208C9.41675 24.0417 18.8334 16.9792 32.9584 16.9792H65.9167" stroke="#FF8615" stroke-width="4" stroke-miterlimit="10" stroke-linecap="round" stroke-linejoin="round"/>
<path d="M32.9583 42.875L47.6954 54.6458C52.5449 58.5067 60.502 58.5067 65.3516 54.6458L70.9074 50.22" stroke="#FF8615" stroke-width="4" stroke-miterlimit="10" stroke-linecap="round" stroke-linejoin="round"/>
<path d="M91.8126 38.1667C98.3134 38.1667 103.583 32.8967 103.583 26.3958C103.583 19.895 98.3134 14.625 91.8126 14.625C85.3117 14.625 80.0417 19.895 80.0417 26.3958C80.0417 32.8967 85.3117 38.1667 91.8126 38.1667Z" stroke="#FF8615" stroke-width="4" stroke-miterlimit="10" stroke-linecap="round" stroke-linejoin="round"/>
</svg>
