<svg width="277" height="60" viewBox="0 0 277 60" fill="none" xmlns="http://www.w3.org/2000/svg">
<path d="M13.9488 55.9664L13.9488 55.9664L13.9536 55.9686C17.8738 57.7085 22.4637 58.2688 27.703 57.6789C32.4739 57.1417 36.3169 56.5533 39.2256 55.912L39.2256 55.912L39.2341 55.91C42.1817 55.2064 44.6416 53.9701 46.5949 52.1886C48.6226 50.3393 49.4141 47.7449 49.0491 44.5036C48.8597 42.8214 48.3458 41.3828 47.488 40.2095C46.6295 39.0351 45.4458 38.153 43.959 37.5557C41.0871 36.3757 37.6397 36.0278 33.6397 36.4782C30.1158 36.875 26.8945 37.6809 23.9794 38.9C24.3538 33.6569 24.6035 29.175 24.7281 25.4554C24.8597 21.5303 24.7343 17.8635 24.3507 14.4562C23.9821 11.1826 22.7428 8.50758 20.614 6.46708C18.5107 4.39557 15.828 3.55495 12.6254 3.91556C10.0648 4.20388 7.95311 5.03721 6.32465 6.44388C4.69541 7.85122 3.58751 9.79999 2.97944 12.2535L2.97943 12.2535L2.97869 12.2565C1.82804 17.0278 1.69735 23.254 2.55968 30.9125C2.99853 34.8099 3.43707 38.0131 3.8757 40.5191C4.31553 43.032 4.86939 45.1568 5.54196 46.8863L5.54202 46.8864C7.19182 51.1245 9.99673 54.1621 13.9488 55.9664Z" fill="#00FEFF" stroke="black"/>
<path d="M240.147 41.7986C238.499 42.6144 237.538 44.1459 237.208 46.2708C236.87 48.4552 237.371 50.2615 238.783 51.5973C240.12 52.8618 241.815 53.7755 243.85 54.3501L243.85 54.3503L243.862 54.3533C245.862 54.8663 248.436 55.366 251.58 55.8535C254.773 56.3485 257.402 56.6557 259.464 56.7725L259.464 56.7727L259.476 56.7731C261.588 56.8417 263.479 56.4848 265.135 55.6858C266.933 54.8507 267.987 53.2859 268.326 51.0961C268.664 48.9161 268.162 47.1302 266.738 45.8417C265.518 44.6518 263.753 43.7291 261.486 43.0479C262.267 39.787 263.009 35.884 263.713 31.3415C264.437 26.675 264.899 22.9806 265.095 20.2647C267.853 20.3605 270.137 20.0142 271.917 19.1896C273.929 18.2884 275.11 16.5655 275.488 14.128C275.859 11.7412 275.277 9.77272 273.685 8.31203C272.215 6.92717 270.356 5.9384 268.124 5.334C265.933 4.74046 263.09 4.17405 259.602 3.63324C256.115 3.09243 253.234 2.77141 250.966 2.6734C248.655 2.57354 246.582 2.95317 244.761 3.8291C242.849 4.74909 241.727 6.45367 241.357 8.83554C240.98 11.2681 241.556 13.2638 243.153 14.7274C244.599 16.0531 246.65 17.0727 249.267 17.8106C248.649 20.6284 247.991 24.2911 247.293 28.7953C246.515 33.8136 246.015 37.7601 245.798 40.6285C243.552 40.6563 241.66 41.0371 240.147 41.7986ZM240.147 41.7986C240.147 41.7983 240.148 41.798 240.148 41.7977L240.37 42.2459M240.147 41.7986C240.146 41.7988 240.146 41.799 240.145 41.7993L240.37 42.2459M240.37 42.2459C238.903 42.9716 238.014 44.3388 237.702 46.3474C237.383 48.4051 237.858 50.034 239.127 51.2341C240.396 52.4342 242.016 53.3125 243.986 53.8689L240.37 42.2459Z" fill="#B1F749" stroke="black"/>
<path d="M196.617 54.963L196.617 54.963L196.621 54.9683C198.718 57.7133 201.098 58.9814 203.742 58.513C206.129 58.0902 207.873 57.0715 208.859 55.3929C209.859 53.7644 210.326 51.696 210.301 49.2234L210.301 49.2218C210.267 46.7226 209.904 43.5342 209.219 39.6647L209.218 39.6586L208.61 36.4572C208.984 37.0896 209.399 37.8012 209.856 38.5924L209.858 38.5945C212.1 42.4316 213.972 45.4368 215.471 47.6049L215.471 47.6049L215.476 47.6119C217.043 49.7958 218.799 51.5729 220.747 52.9351L220.754 52.9395L220.76 52.9436C222.799 54.2786 224.994 54.7484 227.321 54.3361C231.09 53.6684 233.89 51.5853 235.686 48.124C237.451 44.7244 238.425 40.8322 238.621 36.4581C238.864 32.1022 238.641 27.9747 237.951 24.0772C236.794 17.5485 235.026 11.9927 232.636 7.42045C231.424 5.08576 229.973 3.38019 228.264 2.35628C226.545 1.32629 224.605 1.01089 222.473 1.38853C220.703 1.7021 219.223 2.42207 218.059 3.56173C216.897 4.69885 216.076 6.22696 215.576 8.11553L215.576 8.11552L215.575 8.12134C214.634 11.8534 214.692 16.6058 215.71 22.3528C215.757 22.6178 215.816 22.9248 215.886 23.2737L215.654 22.8697L215.653 22.8683C213.187 18.6185 211.137 15.3171 209.504 12.9698C207.849 10.5542 206.047 8.65518 204.093 7.28821C202.145 5.88258 200.037 5.36295 197.796 5.75993C195.315 6.1994 193.274 7.22195 191.701 8.84257C190.131 10.4599 189.057 12.6422 188.454 15.3555L188.454 15.3555L188.453 15.358C187.3 20.6688 187.293 26.5024 188.418 32.8517C189.106 36.7353 190.139 40.7066 191.516 44.7655C192.898 48.8387 194.596 52.2417 196.617 54.963Z" fill="#5E4AF7" stroke="black"/>
<path d="M166.216 54.3395L166.22 54.343C167.242 55.3169 168.233 56.0483 169.193 56.5197C170.154 56.9914 171.23 57.2853 172.415 57.4082C174.51 57.6255 176.448 57.1083 178.21 55.8698C180.043 54.6213 181.086 52.8964 181.311 50.7258C181.558 48.3502 181.027 45.8495 179.759 43.2345C181.794 41.5486 183.452 39.4112 184.738 36.8316C186.142 34.1174 187.028 30.9313 187.406 27.2838C187.844 23.0603 187.226 19.2141 185.536 15.7607C183.901 12.3231 181.477 9.56608 178.271 7.49719C175.073 5.3813 171.412 4.11318 167.296 3.68626C162.179 3.15546 157.671 4.0077 153.799 6.26969C149.953 8.46939 146.931 11.5956 144.733 15.6362L144.733 15.6362L144.732 15.6388C142.598 19.6184 141.286 23.9836 140.794 28.729C140.074 35.6699 140.304 41.66 141.502 46.6879C142.106 49.2248 143.093 51.2288 144.494 52.6581C145.901 54.0946 147.696 54.9189 149.847 55.1421C152.359 55.4027 154.398 55.0053 155.88 53.8522C157.365 52.6959 158.196 50.8532 158.447 48.4289C158.522 47.7103 158.519 46.7448 158.444 45.5421C159.687 46.1261 160.947 46.5749 162.223 46.8874C162.582 48.2554 163.098 49.5934 163.772 50.9011C164.495 52.3053 165.308 53.4559 166.216 54.3395ZM170.126 24.8748L170.132 24.8823L170.138 24.8895C171.255 26.1618 171.717 27.5737 171.553 29.1533C171.395 30.6801 170.655 31.9718 169.286 33.0416C167.977 34.0621 166.513 34.4828 164.867 34.312C163.275 34.1469 161.924 33.4375 160.8 32.1583C159.681 30.8312 159.223 29.4162 159.381 27.8908C159.54 26.3639 160.28 25.0721 161.649 24.0022C163.02 22.9316 164.488 22.4934 166.076 22.6581C167.716 22.8282 169.058 23.5602 170.126 24.8748Z" fill="#00B44B" stroke="black"/>
<path d="M93.1601 51.4568L93.16 51.4568L93.1648 51.4644C95.2732 54.8069 98.0981 56.5314 101.619 56.5314C104.421 56.5314 106.502 55.767 107.677 54.0916C108.84 52.5045 109.407 50.563 109.407 48.2974C109.407 47.5467 109.365 46.8579 109.28 46.2329C110.535 46.3064 111.699 46.3433 112.774 46.3433C114.606 46.3433 116.689 46.3012 119.021 46.2171C118.935 46.8462 118.893 47.5403 118.893 48.2974C118.893 50.5134 119.435 52.4275 120.545 54.0128L120.545 54.0128L120.551 54.0217C121.775 55.6905 123.874 56.457 126.68 56.457C130.245 56.457 133.073 54.7626 135.136 51.4626C137.18 48.1919 138.356 43.6869 138.706 37.9912C138.757 37.182 138.781 36.0046 138.781 34.4654C138.781 28.3636 137.781 22.9654 135.767 18.2814C133.802 13.5959 130.945 9.94734 127.19 7.35865C123.479 4.71614 119.138 3.40112 114.187 3.40112C109.235 3.40112 104.869 4.71674 101.109 7.35864C97.4029 9.94811 94.5472 13.6216 92.5331 18.3545C90.5187 23.0383 89.5182 28.412 89.5182 34.4654C89.5182 36.005 89.5429 37.1826 89.5935 37.9917C89.9435 43.591 91.1205 48.0913 93.1601 51.4568ZM118.159 24.629L118.158 24.629L118.163 24.6355C119.081 25.966 119.562 27.7414 119.562 30.0034C119.562 30.8165 119.534 31.4594 119.481 31.9408C117.122 31.8529 115.307 31.8088 114.038 31.8088C112.859 31.8088 111.042 31.8532 108.59 31.9416C108.49 31.2273 108.44 30.5317 108.44 29.8547C108.44 27.6448 108.92 25.8933 109.839 24.5611C110.721 23.2824 112.065 22.6207 113.964 22.6207C115.911 22.6207 117.276 23.3054 118.159 24.629Z" fill="#FF40FF" stroke="black"/>
<path d="M55.8453 52.8463L55.8474 52.8473C61.3621 55.5716 67.6349 56.4501 74.6455 55.507C80.2065 54.7589 84.1416 53.5834 86.3415 51.9174C88.5436 50.2497 89.5476 48.1873 89.2215 45.7633C89.0514 44.4992 88.5876 43.4533 87.8012 42.6659C87.0176 41.8813 85.9536 41.3935 84.6524 41.1705C83.6562 40.9818 82.4244 40.9957 80.9735 41.1909C80.1202 41.3056 79.1051 41.4932 77.9307 41.752L77.9306 41.7518L77.9173 41.7551C77.0379 41.9744 76.5088 42.0916 76.2963 42.1202C74.2709 42.3926 72.5512 42.2237 71.1168 41.6449C69.9273 41.1648 68.9113 40.3939 68.0683 39.3184C68.979 39.2229 70.2259 39.0685 71.8053 38.856C77.0885 38.1453 80.4677 37.5434 81.8672 37.0421C83.6478 36.4399 84.9911 35.5746 85.8303 34.4107L85.8304 34.4108L85.8376 34.4002C86.6598 33.1962 86.9757 31.8578 86.7809 30.4092C86.5852 28.9547 85.8977 27.7498 84.7376 26.8149C83.6195 25.8671 82.1431 25.3513 80.3535 25.227L80.3507 25.2269C78.7782 25.1266 75.4885 25.4209 70.5378 26.0869C69.0551 26.2864 67.4257 26.5447 65.6497 26.8618C65.9993 25.3681 66.7206 24.2039 67.8016 23.3402L67.8017 23.3403L67.8109 23.3325C69.0606 22.2836 70.9091 21.5684 73.4113 21.2318C74.1421 21.1335 74.6861 21.0853 75.0544 21.0819L75.0762 21.0817L75.098 21.0796L77.0978 20.8856L77.1071 20.8847L77.1162 20.8835C79.0271 20.6264 80.5909 20.1102 81.7753 19.3063C83.1328 18.4379 84.1163 17.3439 84.6966 16.0198L84.6967 16.0199L84.7003 16.0112C85.2638 14.6571 85.4472 13.244 85.2505 11.7812C84.8297 8.6535 83.0325 6.22851 79.9452 4.51351C76.8142 2.7286 71.8659 2.34712 65.2136 3.24201C60.1704 3.92043 56.0283 5.69878 52.8179 8.59961L52.8179 8.59961L52.8154 8.60188C49.6689 11.4837 47.4963 15.1046 46.2951 19.4497C45.097 23.7838 44.8443 28.4887 45.5262 33.5577C46.8685 43.5362 50.2565 50.0532 55.8453 52.8463Z" fill="#FF8615" stroke="black"/>
</svg>
