<svg width="25" height="24" viewBox="0 0 25 24" fill="none" xmlns="http://www.w3.org/2000/svg">
<path d="M8.5 2V5" stroke="#FF8615" stroke-width="1.5" stroke-miterlimit="10" stroke-linecap="round" stroke-linejoin="round"/>
<path d="M16.5 2V5" stroke="#FF8615" stroke-width="1.5" stroke-miterlimit="10" stroke-linecap="round" stroke-linejoin="round"/>
<path d="M21.5 8.5V13.63C20.61 12.92 19.48 12.5 18.25 12.5C17.02 12.5 15.87 12.93 14.97 13.66C13.76 14.61 13 16.1 13 17.75C13 18.73 13.28 19.67 13.76 20.45C14.13 21.06 14.61 21.59 15.18 22H8.5C5 22 3.5 20 3.5 17V8.5C3.5 5.5 5 3.5 8.5 3.5H16.5C20 3.5 21.5 5.5 21.5 8.5Z" stroke="#FF8615" stroke-width="1.5" stroke-miterlimit="10" stroke-linecap="round" stroke-linejoin="round"/>
<path d="M7.5 11H13.5" stroke="#FF8615" stroke-width="1.5" stroke-miterlimit="10" stroke-linecap="round" stroke-linejoin="round"/>
<path d="M7.5 16H10.12" stroke="#FF8615" stroke-width="1.5" stroke-miterlimit="10" stroke-linecap="round" stroke-linejoin="round"/>
<path d="M23.5 17.75C23.5 18.73 23.22 19.67 22.74 20.45C22.46 20.93 22.11 21.35 21.7 21.69C20.78 22.51 19.58 23 18.25 23C17.1 23 16.04 22.63 15.18 22C14.61 21.59 14.13 21.06 13.76 20.45C13.28 19.67 13 18.73 13 17.75C13 16.1 13.76 14.61 14.97 13.66C15.87 12.93 17.02 12.5 18.25 12.5C19.48 12.5 20.61 12.92 21.5 13.63C22.72 14.59 23.5 16.08 23.5 17.75Z" stroke="#FF8615" stroke-width="1.5" stroke-miterlimit="10" stroke-linecap="round" stroke-linejoin="round"/>
<path d="M18.25 20.25C18.25 18.87 19.37 17.75 20.75 17.75C19.37 17.75 18.25 16.63 18.25 15.25C18.25 16.63 17.13 17.75 15.75 17.75C17.13 17.75 18.25 18.87 18.25 20.25Z" stroke="#FF8615" stroke-width="1.5" stroke-linecap="round" stroke-linejoin="round"/>
</svg>
