<svg width="48" height="48" viewBox="0 0 48 48" fill="none" xmlns="http://www.w3.org/2000/svg">
<path d="M24 12.88V19.54" stroke="#00B44B" stroke-width="1.5" stroke-miterlimit="10" stroke-linecap="round"/>
<path d="M24.04 4C16.68 4 10.72 9.96 10.72 17.32V21.52C10.72 22.88 10.16 24.92 9.46004 26.08L6.92004 30.32C5.36004 32.94 6.44004 35.86 9.32004 36.82C18.88 40 29.22 40 38.78 36.82C41.48 35.92 42.64 32.76 41.18 30.32L38.64 26.08C37.94 24.92 37.38 22.86 37.38 21.52V17.32C37.36 10 31.36 4 24.04 4Z" stroke="#00B44B" stroke-width="1.5" stroke-miterlimit="10" stroke-linecap="round"/>
<path d="M30.66 37.64C30.66 41.3 27.66 44.3 24 44.3C22.18 44.3 20.5 43.54 19.3 42.34C18.1 41.14 17.34 39.46 17.34 37.64" stroke="#00B44B" stroke-width="1.5" stroke-miterlimit="10"/>
</svg>
