<svg width="33" height="33" viewBox="0 0 33 33" fill="none" xmlns="http://www.w3.org/2000/svg">
<path d="M12.9131 20.4539L14.9131 22.4539L20.2464 17.1206" stroke="#FF8615" stroke-width="1.5" stroke-linecap="round" stroke-linejoin="round"/>
<path d="M13.8337 8.85408H19.167C21.8337 8.85408 21.8337 7.52075 21.8337 6.18742C21.8337 3.52075 20.5003 3.52075 19.167 3.52075H13.8337C12.5003 3.52075 11.167 3.52075 11.167 6.18742C11.167 8.85408 12.5003 8.85408 13.8337 8.85408Z" stroke="#FF8615" stroke-width="1.5" stroke-miterlimit="10" stroke-linecap="round" stroke-linejoin="round"/>
<path d="M21.8333 6.21411C26.2733 6.45411 28.5 8.09411 28.5 14.1874V22.1874C28.5 27.5208 27.1667 30.1874 20.5 30.1874H12.5C5.83333 30.1874 4.5 27.5208 4.5 22.1874V14.1874C4.5 8.10744 6.72667 6.45411 11.1667 6.21411" stroke="#FF8615" stroke-width="1.5" stroke-miterlimit="10" stroke-linecap="round" stroke-linejoin="round"/>
</svg>
