<svg width="33" height="32" viewBox="0 0 33 32" fill="none" xmlns="http://www.w3.org/2000/svg">
<path d="M29.8337 13.3334V20.0001C29.8337 26.6667 27.167 29.3334 20.5003 29.3334H12.5003C5.83366 29.3334 3.16699 26.6667 3.16699 20.0001V12.0001C3.16699 5.33341 5.83366 2.66675 12.5003 2.66675H19.167" stroke="#FF8615" stroke-width="1.5" stroke-linecap="round" stroke-linejoin="round"/>
<path d="M29.8337 13.3334H24.5003C20.5003 13.3334 19.167 12.0001 19.167 8.00008V2.66675L29.8337 13.3334Z" stroke="#FF8615" stroke-width="1.5" stroke-linecap="round" stroke-linejoin="round"/>
<path d="M24.1667 17.3333H21.1826V22.5555" stroke="#FF8615" stroke-width="1.5" stroke-linecap="round" stroke-linejoin="round"/>
<path d="M23.4207 20.3171H21.1826" stroke="#FF8615" stroke-width="1.5" stroke-linecap="round" stroke-linejoin="round"/>
<path d="M8.5 21.0634H9.99206C10.4867 21.0634 10.9611 20.8669 11.3109 20.5171C11.6606 20.1674 11.8571 19.693 11.8571 19.1983C11.8571 18.7037 11.6606 18.2293 11.3109 17.8795C10.9611 17.5298 10.4867 17.3333 9.99206 17.3333H8.5V22.5555" stroke="#FF8615" stroke-width="1.5" stroke-linecap="round" stroke-linejoin="round"/>
<path d="M14.4678 17.3333V22.5555H15.9598C16.6523 22.5555 17.3165 22.2804 17.8062 21.7907C18.2959 21.301 18.5709 20.6369 18.5709 19.9444C18.5709 19.2519 18.2959 18.5877 17.8062 18.098C17.3165 17.6083 16.6523 17.3333 15.9598 17.3333H14.4678Z" stroke="#FF8615" stroke-width="1.5" stroke-linecap="round" stroke-linejoin="round"/>
</svg>
