<svg width="33" height="33" viewBox="0 0 33 33" fill="none" xmlns="http://www.w3.org/2000/svg">
<path d="M27.1663 11.8541V24.8541C27.1663 28.8541 24.7797 30.1874 21.833 30.1874H11.1663C8.21967 30.1874 5.83301 28.8541 5.83301 24.8541V11.8541C5.83301 7.52075 8.21967 6.52075 11.1663 6.52075C11.1663 7.34742 11.4996 8.09408 12.0463 8.64075C12.593 9.18741 13.3397 9.52075 14.1663 9.52075H18.833C20.4863 9.52075 21.833 8.17409 21.833 6.52075C24.7797 6.52075 27.1663 7.52075 27.1663 11.8541Z" stroke="#FF8615" stroke-width="1.5" stroke-linecap="round" stroke-linejoin="round"/>
<path d="M21.8337 6.52075C21.8337 8.17409 20.487 9.52075 18.8337 9.52075H14.167C13.3403 9.52075 12.5936 9.18741 12.047 8.64075C11.5003 8.09408 11.167 7.34742 11.167 6.52075C11.167 4.86742 12.5137 3.52075 14.167 3.52075H18.8337C19.6603 3.52075 20.407 3.85409 20.9537 4.40076C21.5004 4.94742 21.8337 5.69409 21.8337 6.52075Z" stroke="#FF8615" stroke-width="1.5" stroke-linecap="round" stroke-linejoin="round"/>
<path d="M11.167 18.1873H16.5003" stroke="#FF8615" stroke-width="1.5" stroke-linecap="round" stroke-linejoin="round"/>
<path d="M11.167 23.5208H21.8337" stroke="#FF8615" stroke-width="1.5" stroke-linecap="round" stroke-linejoin="round"/>
</svg>
