<svg width="33" height="33" viewBox="0 0 33 33" fill="none" xmlns="http://www.w3.org/2000/svg">
<path d="M11.5928 27.2017H20.4435" stroke="#FF8615" stroke-width="1.5" stroke-linecap="round" stroke-linejoin="round"/>
<path d="M13.6572 29.8564H18.3776" stroke="#FF8615" stroke-width="1.5" stroke-linecap="round" stroke-linejoin="round"/>
<path d="M16.0176 23.6616V21.0063" stroke="#FF8615" stroke-width="1.5" stroke-linecap="round" stroke-linejoin="round"/>
<path d="M10.5636 20.0104C9.51142 19.1885 8.6592 18.1388 8.07094 16.9403C7.48268 15.7417 7.17367 14.4254 7.16713 13.0903C7.14058 8.29325 11.0083 4.30049 15.8043 4.18985C17.6629 4.14483 19.4886 4.68626 21.0222 5.73733C22.5557 6.78839 23.7194 8.2957 24.348 10.0454C24.9766 11.7951 25.0383 13.6983 24.5243 15.4851C24.0102 17.2718 22.9465 18.8513 21.4842 19.9994C21.1617 20.2495 20.9003 20.5697 20.7199 20.9358C20.5395 21.302 20.4449 21.7043 20.4431 22.1125V22.7763C20.4431 23.011 20.3499 23.2361 20.1839 23.4021C20.0179 23.5681 19.7928 23.6613 19.5581 23.6613H12.4775C12.2428 23.6613 12.0177 23.5681 11.8517 23.4021C11.6857 23.2361 11.5925 23.011 11.5925 22.7763V22.1125C11.592 21.7069 11.4992 21.3068 11.3209 20.9426C11.1426 20.5783 10.8836 20.2595 10.5636 20.0104Z" stroke="#FF8615" stroke-width="1.5" stroke-linecap="round" stroke-linejoin="round"/>
<path d="M16.0183 14.8097V14.5207C16.0183 13.5845 16.5782 13.0888 17.1381 12.6895C17.6846 12.304 18.231 11.8084 18.231 10.8997C18.231 9.63312 17.2447 8.61426 16.0183 8.61426C14.792 8.61426 13.8057 9.63312 13.8057 10.8997" stroke="#FF8615" stroke-width="1.5" stroke-linecap="round" stroke-linejoin="round"/>
<path d="M16.0137 17.9084H16.0217" stroke="#FF8615" stroke-width="1.5" stroke-linecap="round" stroke-linejoin="round"/>
</svg>
