<svg width="33" height="33" viewBox="0 0 33 33" fill="none" xmlns="http://www.w3.org/2000/svg">
<path d="M17.207 28.0808H8.78033C4.56699 28.0808 3.16699 25.2808 3.16699 22.4674V11.2408C3.16699 7.02744 4.56699 5.62744 8.78033 5.62744H17.207C21.4203 5.62744 22.8203 7.02744 22.8203 11.2408V22.4674C22.8203 26.6808 21.407 28.0808 17.207 28.0808Z" stroke="#FF8615" stroke-width="1.5" stroke-linecap="round" stroke-linejoin="round"/>
<path d="M26.527 23.6539L22.8203 21.0539V12.6406L26.527 10.0406C28.3403 8.77394 29.8336 9.54727 29.8336 11.7739V21.9339C29.8336 24.1606 28.3403 24.9339 26.527 23.6539Z" stroke="#FF8615" stroke-width="1.5" stroke-linecap="round" stroke-linejoin="round"/>
<path d="M15.833 15.5208C16.9376 15.5208 17.833 14.6253 17.833 13.5208C17.833 12.4162 16.9376 11.5208 15.833 11.5208C14.7284 11.5208 13.833 12.4162 13.833 13.5208C13.833 14.6253 14.7284 15.5208 15.833 15.5208Z" stroke="#FF8615" stroke-width="1.5" stroke-linecap="round" stroke-linejoin="round"/>
</svg>
